<?xml version="1.0" standalone="no"?>
<!DOCTYPE svg PUBLIC "-//W3C//DTD SVG 20010904//EN"
 "http://www.w3.org/TR/2001/REC-SVG-20010904/DTD/svg10.dtd">
<svg version="1.0" xmlns="http://www.w3.org/2000/svg"
 width="500.000000pt" height="500.000000pt" viewBox="0 0 500.000000 500.000000"
 preserveAspectRatio="xMidYMid meet">

<g transform="translate(0.000000,500.000000) scale(0.100000,-0.100000)"
fill="#000000" stroke="none">
<path d="M2550 4923 c-101 -16 -236 -49 -295 -73 -73 -29 -174 -77 -660 -312
-887 -429 -916 -445 -1066 -584 -169 -155 -301 -387 -356 -626 -39 -170 -36
-316 15 -746 22 -189 43 -347 47 -350 4 -4 22 10 41 31 19 20 39 37 44 37 5 0
7 8 4 18 -5 14 -4 15 5 2 9 -13 11 -13 12 0 1 8 1 22 0 30 0 11 1 12 5 2 4 -9
14 -2 29 21 44 64 65 108 59 120 -4 7 -4 9 1 5 9 -9 35 9 35 24 0 6 -8 4 -17
-3 -10 -8 2 9 27 37 25 28 64 73 87 101 44 52 90 73 164 73 47 0 29 -11 -28
-17 -92 -9 -103 -21 -260 -258 -91 -138 -194 -261 -207 -247 -3 2 -3 -9 -1
-25 2 -15 6 -62 10 -103 4 -41 10 -79 12 -83 3 -5 19 4 37 20 l31 28 -33 -36
-33 -36 35 -294 c51 -422 71 -510 159 -684 161 -321 476 -555 837 -624 30 -6
316 -62 635 -125 896 -177 859 -171 1025 -170 155 1 258 19 404 71 220 79 447
264 580 473 55 85 152 253 208 360 25 47 93 172 152 278 58 106 106 195 106
198 0 2 44 84 99 182 275 494 345 675 357 927 16 320 -108 652 -335 897 -36
40 -89 98 -116 129 -41 47 -351 388 -494 544 -20 22 -100 110 -176 195 -77 85
-182 198 -235 250 -199 199 -402 301 -674 339 -74 11 -223 13 -276 4z m1937
-1869 c-3 -3 -12 -4 -19 -1 -8 3 -5 6 6 6 11 1 17 -2 13 -5z m-297 -138 c-23
-31 -45 -56 -47 -56 -3 0 6 15 19 33 13 17 33 44 44 59 10 14 21 25 22 23 2
-2 -15 -29 -38 -59z m-3127 -143 c-7 -2 -19 -2 -25 0 -7 3 -2 5 12 5 14 0 19
-2 13 -5z m100 0 c-7 -2 -21 -2 -30 0 -10 3 -4 5 12 5 17 0 24 -2 18 -5z
m-173 -22 c-19 -11 -44 -28 -54 -40 -16 -18 -17 -21 -3 -21 9 0 19 -5 23 -11
4 -8 -1 -9 -17 -4 -18 6 -28 2 -47 -21 l-25 -29 17 28 c10 16 15 31 13 34 -3
2 -33 10 -66 16 -34 6 -61 15 -61 20 0 5 8 6 18 4 9 -3 41 -11 70 -17 51 -12
55 -11 80 12 30 28 62 47 77 47 6 0 -6 -8 -25 -18z m227 13 c-3 -3 -12 -4 -19
-1 -8 3 -5 6 6 6 11 1 17 -2 13 -5z m2873 2 c0 -3 -4 -8 -10 -11 -5 -3 -10 -1
-10 4 0 6 5 11 10 11 6 0 10 -2 10 -4z m747 -42 c-3 -3 -12 -4 -19 -1 -8 3 -5
6 6 6 11 1 17 -2 13 -5z m-307 -44 c-25 -4 -59 -10 -76 -13 -17 -3 -41 -10
-52 -16 -25 -14 -50 -15 -36 -2 17 17 109 40 159 39 l50 0 -45 -8z m133 -4
c19 1 24 -2 15 -7 -10 -7 -9 -9 4 -9 9 0 20 -4 23 -10 4 -6 -5 -7 -23 -4 -16
3 -40 1 -53 -6 -21 -10 -22 -10 -7 3 21 17 14 27 -19 27 -12 0 -23 5 -23 10 0
6 11 7 28 3 15 -4 40 -7 55 -7z m-3656 -12 c-3 -3 -12 -4 -19 -1 -8 3 -5 6 6
6 11 1 17 -2 13 -5z m53 -14 c13 -8 13 -10 -2 -10 -9 0 -20 5 -23 10 -8 13 5
13 25 0z m55 -20 c8 -13 -5 -13 -25 0 -13 8 -13 10 2 10 9 0 20 -4 23 -10z
m3225 3 c-8 -4 -34 -17 -57 -30 -24 -13 -43 -20 -43 -15 0 10 80 51 100 51 13
-1 13 -1 0 -6z m405 -3 c3 -5 2 -10 -4 -10 -5 0 -13 5 -16 10 -3 6 -2 10 4 10
5 0 13 -4 16 -10z m-3878 -25 c0 -8 -6 -16 -14 -19 -16 -7 -17 6 -1 22 15 15
15 15 15 -3z m296 8 c-7 -2 -19 -2 -25 0 -7 3 -2 5 12 5 14 0 19 -2 13 -5z
m3622 -3 c3 -5 2 -10 -4 -10 -5 0 -13 5 -16 10 -3 6 -2 10 4 10 5 0 13 -4 16
-10z m-3569 -15 c18 -13 18 -14 -4 -8 -12 3 -25 9 -28 14 -8 14 10 11 32 -6z
m3354 11 c0 -2 -8 -10 -17 -17 -16 -13 -17 -12 -4 4 13 16 21 21 21 13z
m-4010 -16 c0 -5 -5 -10 -11 -10 -5 0 -7 5 -4 10 3 6 8 10 11 10 2 0 4 -4 4
-10z m127 4 c-3 -3 -12 -4 -19 -1 -8 3 -5 6 6 6 11 1 17 -2 13 -5z m4159 -25
c4 -8 1 -8 -14 0 -12 6 -24 16 -28 22 -4 8 -1 8 14 0 12 -6 24 -16 28 -22z
m-3566 -3 c0 -2 -9 -2 -20 1 -11 3 -20 9 -20 15 0 5 9 4 20 -2 11 -6 20 -12
20 -14z m-493 8 c-3 -3 -12 -4 -19 -1 -8 3 -5 6 6 6 11 1 17 -2 13 -5z m3438
-4 c-3 -5 -11 -10 -16 -10 -6 0 -7 5 -4 10 3 6 11 10 16 10 6 0 7 -4 4 -10z
m298 -10 c-3 -12 -8 -18 -11 -15 -3 2 -12 -1 -20 -8 -11 -8 -14 -8 -9 0 4 6 4
13 0 16 -5 2 -3 2 4 1 6 -2 17 4 23 12 17 19 19 18 13 -6z m-3697 -18 c-18
-16 -18 -16 -6 6 6 13 14 21 18 18 3 -4 -2 -14 -12 -24z m3624 18 c0 -5 -2
-10 -4 -10 -3 0 -8 5 -11 10 -3 6 -1 10 4 10 6 0 11 -4 11 -10z m-3125 -10 c8
-13 -5 -13 -25 0 -13 8 -13 10 2 10 9 0 20 -4 23 -10z m3025 6 c0 -3 -4 -8
-10 -11 -5 -3 -10 -1 -10 4 0 6 5 11 10 11 6 0 10 -2 10 -4z m37 -2 c-3 -3
-12 -4 -19 -1 -8 3 -5 6 6 6 11 1 17 -2 13 -5z m-217 -29 c-13 -14 -28 -25
-33 -25 -12 0 35 50 47 50 5 0 -1 -11 -14 -25z m145 15 c-3 -5 -11 -10 -16
-10 -6 0 -7 5 -4 10 3 6 11 10 16 10 6 0 7 -4 4 -10z m-2944 -17 c13 -15 12
-15 -8 -4 -24 12 -29 21 -14 21 5 0 15 -7 22 -17z m-366 -21 c-3 -3 -11 0 -18
7 -9 10 -8 11 6 5 10 -3 15 -9 12 -12z m3630 0 c-3 -3 -11 0 -18 7 -9 10 -8
11 6 5 10 -3 15 -9 12 -12z m-3215 -2 c8 -5 11 -10 5 -10 -5 0 -17 5 -25 10
-8 5 -10 10 -5 10 6 0 17 -5 25 -10z m56 -38 c-4 -3 -14 2 -24 12 -16 18 -16
18 6 6 13 -6 21 -14 18 -18z m2614 -1 c-19 -16 -37 -28 -39 -26 -5 6 52 54 64
54 6 0 -6 -13 -25 -28z m330 26 c0 -2 -19 -21 -42 -42 l-43 -40 40 43 c36 39
45 47 45 39z m-4014 -43 c-10 -14 -20 -23 -23 -21 -6 6 30 57 36 51 2 -2 -4
-15 -13 -30z m1119 -4 c3 -5 2 -10 -4 -10 -5 0 -13 5 -16 10 -3 6 -2 10 4 10
5 0 13 -4 16 -10z m3230 -8 c-3 -3 -11 0 -18 7 -9 10 -8 11 6 5 10 -3 15 -9
12 -12z m-4024 -30 c-11 -16 -28 -35 -38 -43 -9 -8 -2 5 17 29 38 48 52 57 21
14z m1299 2 c0 -2 -9 0 -20 6 -11 6 -20 13 -20 16 0 2 9 0 20 -6 11 -6 20 -13
20 -16z m-765 -2 c-3 -3 -11 0 -18 7 -9 10 -8 11 6 5 10 -3 15 -9 12 -12z
m305 8 c8 -5 12 -11 9 -14 -3 -3 -14 1 -25 9 -21 16 -8 20 16 5z m2465 -7 c-2
-10 -4 -20 -4 -22 -1 -3 -6 0 -12 6 -6 6 -8 16 -5 22 11 17 25 13 21 -6z m766
0 c13 -16 12 -17 -3 -4 -17 13 -22 21 -14 21 2 0 10 -8 17 -17z m-1778 -10
c-7 -2 -19 -2 -25 0 -7 3 -2 5 12 5 14 0 19 -2 13 -5z m-1408 -13 c3 -5 2 -10
-4 -10 -5 0 -13 5 -16 10 -3 6 -2 10 4 10 5 0 13 -4 16 -10z m2376 -4 c-9 -11
-9 -15 1 -19 9 -4 9 -6 1 -6 -19 -1 -27 20 -12 30 20 13 23 11 10 -5z m309 1
c0 -1 -26 -27 -57 -57 l-58 -55 55 58 c50 53 60 62 60 54z m-2629 -34 c13 -15
12 -15 -8 -4 -24 12 -29 21 -14 21 5 0 15 -7 22 -17z m2284 -10 c-2 -10 -4
-20 -4 -22 -1 -3 -6 0 -12 6 -6 6 -8 16 -5 22 11 17 25 13 21 -6z m-3301 -14
c-10 -12 -32 -30 -49 -41 -17 -12 -11 -4 15 20 49 45 64 54 34 21z m761 -7
c-3 -3 -11 0 -18 7 -9 10 -8 11 6 5 10 -3 15 -9 12 -12z m306 1 c13 -15 12
-15 -8 -4 -24 12 -29 21 -14 21 5 0 15 -7 22 -17z m2199 -15 c0 -16 -3 -19
-11 -11 -6 6 -8 16 -5 22 11 17 16 13 16 -11z m-2088 -53 c43 -27 77 -54 78
-59 0 -5 -10 -1 -22 8 -13 8 -51 34 -85 57 -35 23 -63 44 -63 46 0 7 10 2 92
-52z m2052 20 c-6 -16 -24 -21 -24 -7 0 11 11 22 21 22 5 0 6 -7 3 -15z
m-3314 -10 c0 -2 -10 -9 -22 -15 -22 -11 -22 -10 -4 4 21 17 26 19 26 11z
m3271 -38 c-16 -16 -26 0 -10 19 9 11 15 12 17 4 2 -6 -1 -17 -7 -23z m-1547
15 c2 -4 -4 -8 -14 -8 -10 0 -16 4 -14 8 3 4 9 8 14 8 5 0 11 -4 14 -8z m1491
-68 c-37 -34 -44 -22 -9 16 16 16 31 25 32 20 2 -6 -8 -22 -23 -36z m-3325 23
c0 -2 -10 -12 -22 -23 l-23 -19 19 23 c18 21 26 27 26 19z m1496 -35 c-4 -3
-14 2 -24 12 -16 18 -16 18 6 6 13 -6 21 -14 18 -18z m-1546 -5 c0 -2 -12 -14
-27 -28 l-28 -24 24 28 c23 25 31 32 31 24z m1600 -28 c0 -4 -7 -6 -15 -3 -8
4 -15 10 -15 15 0 4 7 6 15 3 8 -4 15 -10 15 -15z m1724 -4 c-6 -16 -24 -21
-24 -7 0 11 11 22 21 22 5 0 6 -7 3 -15z m296 -8 c0 -2 -10 -12 -22 -23 l-23
-19 19 23 c18 21 26 27 26 19z m-1975 -17 c3 -5 2 -10 -4 -10 -5 0 -13 5 -16
10 -3 6 -2 10 4 10 5 0 13 -4 16 -10z m446 -7 c13 -16 12 -17 -3 -4 -17 13
-22 21 -14 21 2 0 10 -8 17 -17z m1202 -6 c3 -8 -1 -14 -9 -14 -15 0 -18 9 -7
20 9 9 10 9 16 -6z m-3353 -1 c0 -2 -8 -10 -17 -17 -16 -13 -17 -12 -4 4 13
16 21 21 21 13z m1749 -20 c9 -11 8 -15 -6 -20 -10 -4 -14 -4 -10 0 4 4 2 13
-4 21 -7 8 -8 13 -1 13 5 0 15 -6 21 -14z m1563 -18 c-6 -6 -15 -8 -19 -4 -4
4 -1 11 7 16 19 12 27 3 12 -12z m-1501 -25 c13 -15 12 -15 -8 -4 -24 12 -29
21 -14 21 5 0 15 -7 22 -17z m1469 -1 c0 -14 -11 -21 -26 -15 -8 3 -11 9 -8
14 7 11 34 12 34 1z m-1414 -40 c-4 -3 -14 2 -24 12 -16 18 -16 18 6 6 13 -6
21 -14 18 -18z m1367 3 c4 -8 1 -17 -5 -21 -7 -4 -8 -3 -4 4 4 7 1 12 -9 12
-9 0 -13 5 -10 10 9 14 22 12 28 -5z m-1323 -30 c7 -8 8 -15 2 -15 -5 0 -15 7
-22 15 -7 8 -8 15 -2 15 5 0 15 -7 22 -15z m1275 5 c-3 -5 -11 -10 -16 -10 -6
0 -7 5 -4 10 3 6 11 10 16 10 6 0 7 -4 4 -10z m-1535 -14 c0 -2 -7 -7 -16 -10
-8 -3 -12 -2 -9 4 6 10 25 14 25 6z m1495 -16 c-3 -5 -11 -10 -16 -10 -6 0 -7
5 -4 10 3 6 11 10 16 10 6 0 7 -4 4 -10z m-1185 -15 c7 -8 8 -15 2 -15 -5 0
-15 7 -22 15 -7 8 -8 15 -2 15 5 0 15 -7 22 -15z m1140 -9 c0 -3 -4 -8 -10
-11 -5 -3 -10 -1 -10 4 0 6 5 11 10 11 6 0 10 -2 10 -4z m-1089 -33 c13 -15
12 -15 -8 -4 -24 12 -29 21 -14 21 5 0 15 -7 22 -17z m1046 0 c-9 -9 -20 -13
-24 -9 -4 4 -1 11 7 16 25 16 35 11 17 -7z m-991 -41 c-4 -3 -14 2 -24 12 -16
18 -16 18 6 6 13 -6 21 -14 18 -18z m949 18 c-3 -5 -11 -10 -16 -10 -6 0 -7 5
-4 10 3 6 11 10 16 10 6 0 7 -4 4 -10z m-55 -30 c-8 -5 -17 -7 -19 -4 -3 3 1
9 9 14 8 5 17 7 19 4 3 -3 -1 -9 -9 -14z m-850 -10 c8 -5 11 -10 5 -10 -5 0
-17 5 -25 10 -8 5 -10 10 -5 10 6 0 17 -5 25 -10z m820 -4 c0 -2 -7 -6 -15
-10 -8 -3 -15 -1 -15 4 0 6 7 10 15 10 8 0 15 -2 15 -4z m-765 -26 c3 -5 2
-10 -4 -10 -5 0 -13 5 -16 10 -3 6 -2 10 4 10 5 0 13 -4 16 -10z m1932 4 c-3
-3 -12 -4 -19 -1 -8 3 -5 6 6 6 11 1 17 -2 13 -5z m-1257 -14 c0 -5 -7 -10
-16 -10 -8 0 -12 5 -9 10 3 6 10 10 16 10 5 0 9 -4 9 -10z m-635 -10 c3 -5 2
-10 -4 -10 -5 0 -13 5 -16 10 -3 6 -2 10 4 10 5 0 13 -4 16 -10z m590 -9 c-3
-5 0 -11 7 -14 7 -2 1 -2 -14 0 -15 2 -37 -1 -49 -7 -17 -10 -20 -9 -17 1 3 8
15 16 29 20 36 10 51 10 44 0z m-1445 -5 c0 -2 -7 -7 -16 -10 -8 -3 -12 -2 -9
4 6 10 25 14 25 6z m910 -12 c0 -2 -7 -4 -15 -4 -8 0 -15 4 -15 10 0 5 7 7 15
4 8 -4 15 -8 15 -10z m670 2 c0 -2 -11 -6 -25 -8 -14 -3 -25 -1 -25 3 0 5 11
9 25 9 14 0 25 -2 25 -4z m-620 -22 c0 -2 -7 -4 -15 -4 -8 0 -15 4 -15 10 0 5
7 7 15 4 8 -4 15 -8 15 -10z m390 6 c0 -5 -8 -10 -17 -10 -15 0 -16 2 -3 10
19 12 20 12 20 0z m-345 -20 c3 -5 -1 -10 -9 -10 -8 0 -18 5 -21 10 -3 6 1 10
9 10 8 0 18 -4 21 -10z m300 0 c-3 -5 -10 -10 -16 -10 -5 0 -9 5 -9 10 0 6 7
10 16 10 8 0 12 -4 9 -10z m-35 -10 c0 -5 -7 -10 -16 -10 -8 0 -12 5 -9 10 3
6 10 10 16 10 5 0 9 -4 9 -10z m-223 -6 c-3 -3 -12 -4 -19 -1 -8 3 -5 6 6 6
11 1 17 -2 13 -5z m92 -10 c2 -2 -14 -4 -37 -4 -23 0 -42 4 -42 9 0 9 69 4 79
-5z m81 6 c0 -5 -17 -9 -37 -9 l-38 2 35 7 c19 4 36 8 38 9 1 0 2 -3 2 -9z
m-1495 -60 c-3 -5 -12 -10 -18 -10 -7 0 -6 4 3 10 19 12 23 12 15 0z"/>
</g>
</svg>
